<svg width="865" height="435" viewBox="0 0 865 435" fill="none" xmlns="http://www.w3.org/2000/svg">
<g clip-path="url(#clip0_2251_84)">
<path d="M282 248.5C230 293 201.256 361.192 195.697 400.807C193.002 420.01 176.643 434.331 157.252 434.331H38.8224C15.8884 434.331 -2.03557 414.552 0.186427 391.726C4.92962 343 38.8224 201.5 161.5 94.5L282 248.5Z" fill="#FF3636"/>
<path d="M583 248C635 292.5 663.744 360.692 669.303 400.307C671.998 419.51 688.357 433.831 707.748 433.831H826.178C849.112 433.831 867.036 414.052 864.814 391.226C860.07 342.5 826.178 201 703.5 94L583 248Z" fill="#00AE42"/>
<path d="M704 94.5L583.5 248C531 200 472 195.242 446.207 195.242C420.414 195.242 381.826 199.326 358.554 206.88C358.554 206.88 325.5 216 282 248.5L161.5 94.5C261.5 11 351.5 0 432.453 0C539 0 623 36.5 704 94.5Z" fill="#FC942D"/>
</g>
<defs>
<clipPath id="clip0_2251_84">
<rect width="865" height="435" fill="white"/>
</clipPath>
</defs>
</svg>
