<svg width="865" height="435" viewBox="0 0 865 435" fill="none" xmlns="http://www.w3.org/2000/svg">
<g clip-path="url(#clip0_2251_84)">
<path d="M583 248.5C635 293 663.744 361.192 669.303 400.807C671.998 420.01 688.357 434.331 707.748 434.331H826.178C849.112 434.331 867.036 414.552 864.814 391.726C860.07 343 826.178 201.5 703.5 94.5L583 248.5Z" fill="#FF3636"/>
<path d="M282 248C230 292.5 201.256 360.692 195.697 400.307C193.002 419.51 176.643 433.831 157.252 433.831H38.8224C15.8884 433.831 -2.03557 414.052 0.186427 391.226C4.92962 342.5 38.8224 201 161.5 94L282 248Z" fill="#00AE42"/>
<path d="M161 94.5L281.5 248C334 200 393 195.242 418.793 195.242C444.586 195.242 483.174 199.326 506.446 206.88C506.446 206.88 539.5 216 583 248.5L703.5 94.5C603.5 11 513.5 0 432.547 0C326 0 242 36.5 161 94.5Z" fill="#FC942D"/>
</g>
<defs>
<clipPath id="clip0_2251_84">
<rect width="865" height="435" fill="white" transform="matrix(-1 0 0 1 865 0)"/>
</clipPath>
</defs>
</svg>
