<svg width="44" height="44" viewBox="0 0 44 44" fill="none" xmlns="http://www.w3.org/2000/svg">
<path fill-rule="evenodd" clip-rule="evenodd" d="M12.606 15.7932C12.8824 17.9212 14.0349 19.895 15.899 21.0527C17.8791 22.2823 20.199 22.3034 22.1219 21.3297C21.9446 19.0517 20.7675 16.9012 18.7875 15.6716C16.9234 14.5141 14.7578 14.4276 12.9061 15.2341C12.696 15.3255 12.5746 15.5516 12.606 15.7932Z" fill="#00AE42"/>
<path fill-rule="evenodd" clip-rule="evenodd" d="M31.6375 15.7932C31.3611 17.9211 30.2086 19.895 28.3445 21.0527C26.3644 22.2823 24.0444 22.3034 22.1216 21.3297C22.2989 19.0517 23.476 16.9012 25.456 15.6716C27.3201 14.5141 29.4858 14.4276 31.3374 15.2341C31.5475 15.3255 31.6689 15.5517 31.6375 15.7932Z" fill="#00AE42"/>
<path fill-rule="evenodd" clip-rule="evenodd" d="M22.4221 4.11244C23.9973 5.43398 25.0105 7.4943 25.0105 9.80952C25.0105 12.2687 23.8675 14.4403 22.1219 15.7444C20.3764 14.4403 19.2334 12.2686 19.2334 9.80952C19.2334 7.4943 20.2466 5.43388 21.8218 4.11244C22.0004 3.96252 22.2433 3.96252 22.4221 4.11244Z" fill="#00AE42"/>
<path fill-rule="evenodd" clip-rule="evenodd" d="M17.0503 18.9061C16.7711 18.7321 16.6759 18.3476 16.8375 18.0473C16.9992 17.747 17.3567 17.6446 17.6359 17.8184L22.1218 20.6041L26.6076 17.8184C26.8869 17.6445 27.2443 17.7469 27.4061 18.0473C27.5678 18.3476 27.4725 18.7321 27.1933 18.9061L22.4194 21.8705C22.4051 21.8796 22.3905 21.888 22.3755 21.8958L22.3748 21.8961L22.3646 21.9013L22.3643 21.9014C22.2945 21.9357 22.221 21.9541 22.1478 21.9575H22.1468L22.1355 21.958L22.129 21.9581L22.1218 21.9582L22.1146 21.9581L22.1081 21.958L22.0968 21.9575H22.0958C22.0227 21.9541 21.9492 21.9358 21.8793 21.9014L21.879 21.9013L21.8686 21.8961L21.868 21.8958C21.853 21.888 21.8384 21.8796 21.824 21.8705L17.0503 18.9061Z" fill="#1C355E"/>
<path fill-rule="evenodd" clip-rule="evenodd" d="M21.5361 9.81175C21.5361 9.46383 21.7983 9.18184 22.1218 9.18184C22.4453 9.18184 22.7074 9.46383 22.7074 9.81175V30.6072C22.7074 30.9551 22.4453 31.2371 22.1218 31.2371C21.7983 31.2371 21.5361 30.9551 21.5361 30.6072V9.81175Z" fill="#1C355E"/>
<path d="M39.7937 25.5812C39.4814 25.0718 39.0032 24.7033 38.451 24.5466C37.8989 24.3899 37.3118 24.4561 36.8027 24.7323L32.3065 27.1766C32.2799 27.0898 32.2448 27.0063 32.2016 26.9275C31.8406 26.2624 31.2533 25.7704 30.561 25.5534C29.8687 25.3363 29.1246 25.4109 28.4825 25.7615L23.473 28.4978C23.1226 28.6895 22.7338 28.7882 22.3397 28.7855C21.9457 28.7827 21.5581 28.6786 21.2101 28.482L17.7964 26.5523C16.6028 25.8777 15.2573 25.5673 13.9084 25.6555C12.5596 25.7436 11.2598 26.2268 10.1527 27.0517L8.90332 27.9852L9.7102 30.2538L10.73 37.0991L13.4907 36.4663C14.035 36.3417 14.5954 36.318 15.1473 36.3962L22.9002 37.3013C24.3585 37.5083 25.8376 37.1403 27.0587 36.2668L39.4554 27.4144C39.7261 27.2169 39.9132 26.9142 39.9765 26.5714C40.0397 26.2286 39.9741 25.873 39.7937 25.5812Z" fill="#FFCAB4"/>
<path d="M31.6531 29.4531C33.1799 28.4938 32.671 27.5492 32.4786 27.0847L32.306 27.1785C32.3957 27.4656 32.3907 27.7767 32.2917 28.0603C32.1927 28.344 32.0057 28.5831 31.7617 28.7383L24.8548 33.099C23.508 33.9512 21.9051 34.2201 20.3773 33.8502L15.793 32.7331L20.2761 34.4844C21.0174 34.7299 21.7992 34.8047 22.5697 34.7037C23.3402 34.6028 24.0817 34.3285 24.745 33.8991L31.6531 29.4531Z" fill="#EFB79F"/>
<path d="M11.1542 36.547C11.4124 37.8561 10.5838 39.1335 9.28315 39.4314V39.4314C7.92514 39.7425 6.57881 38.8691 6.30935 37.5022L4.46313 28.1372C4.20509 26.8282 5.03359 25.5511 6.33402 25.2531V25.2531C7.69191 24.942 9.03814 25.8153 9.30764 27.182L11.1542 36.547Z" fill="#005CB9"/>
<path d="M6.19629 27.3172L7.41104 27.0452L7.66639 28.3368L6.45164 28.6089L6.19629 27.3172Z" fill="white"/>
</svg>
