<svg width="44" height="44" viewBox="0 0 44 44" fill="none" xmlns="http://www.w3.org/2000/svg">
<path d="M20.1847 9.80625C20.0184 9.80625 19.8543 9.73913 19.7482 9.61222C19.2558 9.02385 18.3798 8.34889 17.0012 8.47838C15.3783 8.63044 14.173 8.17613 13.4476 7.76829C13.1957 7.62665 13.122 7.33222 13.283 7.11064C13.444 6.889 13.7788 6.82429 14.0307 6.96586C14.6101 7.29154 15.5759 7.65439 16.8866 7.53136C18.8758 7.3456 20.0796 8.40153 20.6202 9.04777C20.7975 9.25955 20.7459 9.55767 20.505 9.71355C20.4084 9.77605 20.2961 9.80625 20.1847 9.80625Z" fill="#FDD835"/>
<path d="M14.5165 12.3352C14.4199 12.3352 14.3222 12.3125 14.2338 12.2647C13.9789 12.1272 13.8993 11.834 14.0557 11.6098C14.7496 10.6154 16.0213 9.93202 17.7333 9.63347C18.9816 9.41583 20.029 9.47543 20.0729 9.47815C20.3712 9.49614 20.5964 9.72339 20.5759 9.98577C20.5555 10.248 20.2965 10.4446 19.9994 10.4283C19.9619 10.4261 16.2858 10.2344 14.9784 12.108C14.8762 12.2545 14.6985 12.3352 14.5165 12.3352Z" fill="#FDD835"/>
<path d="M22.6769 30.5817C31.5679 30.5817 36.4841 19.1108 22.4439 10.2513C22.0946 10.0309 21.8872 9.67602 21.8919 9.29795C21.8958 8.98552 22.0083 8.68222 22.212 8.42625C22.8693 7.60065 23.8154 6.18835 24.3828 5.05081C24.5187 4.77839 24.3242 4.48537 23.9607 4.48537C23.1174 4.48544 23.1174 4 22.2741 4C21.4307 4 21.4307 4.48544 20.5873 4.48544C19.8687 4.48544 19.5738 3.94157 19.2244 4.33714C18.2054 5.4907 21.6956 9.54733 21.6956 9.54733C6.28132 18.4604 11.2514 30.5818 20.3522 30.5818H22.6769V30.5817Z" fill="#FAB23F"/>
<path d="M26.1724 9.54727C26.1724 9.54727 29.7144 5.50377 28.6959 4.34386C28.3487 3.94853 28.0527 4.48544 27.3348 4.48544C26.4914 4.48537 26.4914 4 25.6479 4C24.8045 4 24.8045 4.48537 23.9611 4.48537C23.9195 4.48537 23.8816 4.48334 23.844 4.48106C23.5051 5.75875 21.978 7.74925 21.1041 8.81504C21.4483 9.25925 21.696 9.5472 21.696 9.5472C21.4904 9.6661 21.2892 9.78567 21.0908 9.90567C35.8182 18.8094 30.8904 30.5817 21.8833 30.5817H27.5704C36.6987 30.5817 41.6381 18.4899 26.1724 9.54727Z" fill="url(#paint0_linear_205_3608)"/>
<path d="M26.8309 10.9853C24.7727 11.4425 22.7394 11.4425 20.6809 10.9853C19.9645 10.8262 19.5584 10.1176 19.8162 9.47342C19.819 9.46621 19.8219 9.459 19.8248 9.45179C20.041 8.91174 20.654 8.60868 21.2549 8.74138C22.9402 9.11354 24.5711 9.11366 26.2568 8.74138C26.8577 8.60868 27.4708 8.91174 27.6869 9.45179C27.6898 9.459 27.6927 9.46621 27.6956 9.47342C27.9534 10.1176 27.5473 10.8262 26.8309 10.9853Z" fill="#F4D654"/>
<path d="M27.7859 19.4286V18.1429H19.4287V19.4286H22.0878C23.077 19.4286 23.9119 19.9673 24.2265 20.7143H19.4287V22H24.2265C24.0705 22.3749 23.7812 22.6998 23.3983 22.93C23.0153 23.1602 22.5575 23.2845 22.0878 23.2857H19.4287V24.8376L23.6726 28.4286H25.8212L21.2627 24.5714H22.0878C22.963 24.5705 23.811 24.3142 24.4889 23.8457C25.1667 23.3773 25.633 22.7254 25.809 22H27.7859V20.7143H25.809C25.6925 20.2464 25.4525 19.8069 25.107 19.4286H27.7859Z" fill="#B76A00"/>
<path d="M39.7937 26.2872C39.4814 25.8028 39.0032 25.4524 38.451 25.3033C37.8989 25.1543 37.3118 25.2172 36.8027 25.4799L32.3065 27.8045C32.2799 27.722 32.2448 27.6426 32.2016 27.5676C31.8406 26.9351 31.2533 26.4672 30.561 26.2608C29.8687 26.0544 29.1246 26.1252 28.4825 26.4587L23.473 29.0611C23.1226 29.2434 22.7338 29.3372 22.3397 29.3346C21.9457 29.332 21.5581 29.2329 21.2101 29.046L17.7964 27.2108C16.6028 26.5692 15.2573 26.274 13.9084 26.3579C12.5596 26.4417 11.2598 26.9012 10.1527 27.6858L8.90332 28.5735L9.7102 30.731L10.73 37.2412L13.4907 36.6393C14.035 36.5209 14.5954 36.4984 15.1473 36.5727L22.9002 37.4335C24.3585 37.6303 25.8376 37.2804 27.0587 36.4496L39.4554 28.0307C39.7261 27.8428 39.9132 27.5549 39.9765 27.2289C40.0397 26.9029 39.9741 26.5648 39.7937 26.2872Z" fill="#FFCAB4"/>
<path d="M31.6531 29.9695C33.1799 29.0573 32.671 28.1588 32.4786 27.7172L32.306 27.8064C32.3957 28.0794 32.3907 28.3753 32.2917 28.645C32.1927 28.9147 32.0057 29.1422 31.7617 29.2897L24.8548 33.437C23.508 34.2474 21.9051 34.5031 20.3773 34.1514L15.793 33.0889L20.2761 34.7545C21.0174 34.988 21.7992 35.0591 22.5697 34.9631C23.3402 34.8672 24.0817 34.6063 24.745 34.1979L31.6531 29.9695Z" fill="#EFB79F"/>
<path d="M11.1223 36.562C11.3966 37.8852 10.5542 39.1824 9.23396 39.4701V39.4701C7.89468 39.7618 6.57468 38.9047 6.29647 37.5625L4.49508 28.8722C4.22084 27.5492 5.0631 26.2522 6.38321 25.9645V25.9645C7.72236 25.6727 9.04227 26.5298 9.32051 27.8718L11.1223 36.562Z" fill="#005CB9"/>
<path d="M6.19629 27.9383L7.41104 27.6795L7.66639 28.9079L6.45164 29.1667L6.19629 27.9383Z" fill="white"/>
<defs>
<linearGradient id="paint0_linear_205_3608" x1="28.616" y1="4" x2="28.616" y2="30.5817" gradientUnits="userSpaceOnUse">
<stop stop-color="#FFA412"/>
<stop offset="1" stop-color="#E88102"/>
</linearGradient>
</defs>
</svg>
