<svg width="44" height="44" viewBox="0 0 44 44" fill="none" xmlns="http://www.w3.org/2000/svg">
<g clip-path="url(#clip0_205_3735)">
<path d="M7.10352 6.20691V12.7862C7.10352 22.7713 12.9231 31.8402 22.0001 36C31.0771 31.8402 36.8966 22.7713 36.8966 12.7862V6.20691C32.0844 6.20564 27.4242 4.51927 23.7256 1.44L22.0001 0L20.2745 1.44C16.5759 4.51927 11.9157 6.20564 7.10352 6.20691Z" fill="#005CB9"/>
<path d="M29.2806 4.74208C27.102 18.0869 20.833 26.2304 14.8682 31.1027C16.9487 33.1299 19.3607 34.7859 21.9999 36C31.0769 31.8402 36.8964 22.7713 36.8964 12.7862V6.2069C34.2877 6.20501 31.7037 5.70783 29.2806 4.74208Z" fill="#005CB9"/>
<path d="M24.4829 17.3793V13.6551C24.4829 12.284 23.3712 11.1724 22.0001 11.1724C20.629 11.1724 19.5174 12.284 19.5174 13.6551V17.3793H17.0347V13.6551C17.0347 10.9129 19.2579 8.68957 22.0002 8.68957C24.7424 8.68957 26.9657 10.9129 26.9657 13.6551V17.3793H24.4829Z" fill="#E5E5E5"/>
<path d="M17.0347 17.3793H19.5174V14.4496C18.7099 14.8506 17.8812 15.2075 17.0347 15.5172V17.3793Z" fill="#D6D6D6"/>
<path d="M25.4078 10.049C24.8579 10.6734 24.2627 11.2568 23.6265 11.7932C24.1671 12.2618 24.4793 12.9402 24.483 13.6552V17.3794H26.9657V13.6552C26.9646 12.2903 26.401 10.9856 25.4078 10.049Z" fill="#D6D6D6"/>
<path d="M28.8275 16.1379H15.1724V27.3104H28.8275V16.1379Z" fill="#FDB62F"/>
<path d="M28.8275 16.1379H15.1724V27.3104H28.8275V16.1379Z" fill="#81C0EF"/>
<path d="M28.8275 27.3104H15.1724C19.0455 24.8276 24.9544 24.8276 28.8275 27.3104Z" fill="#59A9E4"/>
<path d="M22.6208 21.7242H21.3794V24.8276H22.6208V21.7242Z" fill="#126099"/>
<path d="M22.0002 22.3448C22.6857 22.3448 23.2415 21.789 23.2415 21.1035C23.2415 20.4179 22.6857 19.8621 22.0002 19.8621C21.3146 19.8621 20.7588 20.4179 20.7588 21.1035C20.7588 21.789 21.3146 22.3448 22.0002 22.3448Z" fill="#126099"/>
<path d="M15.1724 16.1379H28.8275C24.9544 18.6207 19.0455 18.6207 15.1724 16.1379Z" fill="#59A9E4"/>
<path d="M12.0688 14.2758C12.0688 12.5621 13.4586 11.1724 15.1723 11.1724C13.4586 11.1724 12.0688 9.78265 12.0688 8.06892" fill="#FDC353"/>
<path d="M12.0688 8.06917C12.0688 9.78289 10.6791 11.1726 8.96533 11.1726C10.6791 11.1726 12.0688 12.5623 12.0688 14.2761" fill="#FDC353"/>
</g>
<path d="M39.7937 30.0072C39.4814 29.5482 39.0032 29.2162 38.451 29.075C37.8989 28.9338 37.3118 28.9934 36.8027 29.2423L32.3065 31.4448C32.2799 31.3667 32.2448 31.2914 32.2016 31.2204C31.8406 30.6211 31.2533 30.1777 30.561 29.9822C29.8687 29.7866 29.1246 29.8537 28.4825 30.1697L23.473 32.6354C23.1226 32.8082 22.7338 32.8971 22.3397 32.8946C21.9457 32.8921 21.5581 32.7983 21.2101 32.6211L17.7964 30.8823C16.6028 30.2744 15.2573 29.9947 13.9084 30.0742C12.5596 30.1536 11.2598 30.589 10.1527 31.3323L8.90332 32.1735L9.7102 34.2177L10.73 40.3861L13.4907 39.8158C14.035 39.7036 14.5954 39.6822 15.1473 39.7527L22.9002 40.5682C24.3585 40.7547 25.8376 40.4232 27.0587 39.636L39.4554 31.6591C39.7261 31.4811 39.9132 31.2084 39.9765 30.8995C40.0397 30.5906 39.9741 30.2702 39.7937 30.0072Z" fill="#FFCAB4"/>
<path d="M31.6531 33.4962C33.1799 32.6319 32.671 31.7806 32.4786 31.3621L32.306 31.4466C32.3957 31.7053 32.3907 31.9856 32.2917 32.2412C32.1927 32.4968 32.0057 32.7123 31.7617 32.8521L24.8548 36.7816C23.508 37.5495 21.9051 37.7918 20.3773 37.4585L15.793 36.4518L20.2761 38.0299C21.0174 38.2512 21.7992 38.3186 22.5697 38.2276C23.3402 38.1367 24.0817 37.8895 24.745 37.5025L31.6531 33.4962Z" fill="#EFB79F"/>
<path d="M11.0857 39.5756C11.3784 40.9131 10.522 42.232 9.18114 42.5088V42.5088C7.86251 42.781 6.57024 41.9418 6.28248 40.6265L4.53161 32.6234C4.23903 31.2861 5.09532 29.9674 6.43603 29.6906V29.6906C7.75453 29.4184 9.04671 30.2574 9.33451 31.5726L11.0857 39.5756Z" fill="#005CB9"/>
<path d="M6.19629 31.5716L7.41104 31.3264L7.66639 32.4903L6.45164 32.7355L6.19629 31.5716Z" fill="white"/>
<defs>
<clipPath id="clip0_205_3735">
<rect width="36" height="36" fill="white" transform="translate(4)"/>
</clipPath>
</defs>
</svg>
